<svg class="lights" width="350" height="54" viewBox="0 0 350 54" fill="none" xmlns="http://www.w3.org/2000/svg">
<path d="M0 1C3 13 179.608 69.2685 350.719 1" stroke="black"/>
<path d="M184.771 37.3292C184.992 38.6087 184.892 39.7937 184.577 40.6687C184.256 41.5598 183.759 42.0259 183.249 42.1139C182.738 42.202 182.114 41.9291 181.513 41.1968C180.923 40.4778 180.433 39.3946 180.212 38.1151C179.991 36.8356 180.091 35.6505 180.406 34.7755C180.727 33.8845 181.224 33.4184 181.735 33.3304C182.245 33.2423 182.869 33.5152 183.47 34.2474C184.06 34.9665 184.551 36.0497 184.771 37.3292Z" stroke="black"/>
<path d="M187.517 41.1885C187.915 43.4967 187.779 46.1945 187.252 48.3559C186.989 49.437 186.634 50.3575 186.218 51.0206C185.795 51.6958 185.362 52.0245 184.969 52.0922C184.577 52.1598 184.063 51.9955 183.444 51.5007C182.837 51.0146 182.202 50.2653 181.599 49.3333C180.394 47.4705 179.378 44.9703 178.98 42.6601C178.583 40.356 178.885 38.7391 179.51 37.6684C180.13 36.606 181.099 36.0247 182.167 35.8406C183.236 35.6563 184.362 35.8776 185.318 36.6707C186.28 37.4685 187.12 38.8875 187.517 41.1885Z" fill="#FF0000" stroke="black" class="odd"/>
<path d="M138.55 37.6332C138.369 38.9189 137.912 40.0169 137.345 40.7539C136.767 41.5044 136.152 41.7966 135.639 41.7245C135.125 41.6523 134.614 41.2019 134.266 40.3213C133.924 39.4564 133.787 38.2751 133.968 36.9893C134.149 35.7036 134.606 34.6057 135.173 33.8686C135.751 33.1181 136.366 32.826 136.879 32.8981C137.392 32.9702 137.903 33.4207 138.252 34.3013C138.594 35.1661 138.73 36.3475 138.55 37.6332Z" stroke="black"/>
<path d="M139.986 42.1466C139.66 44.4661 138.707 46.9935 137.545 48.8908C136.964 49.8398 136.345 50.608 135.747 51.1125C135.138 51.6262 134.624 51.8069 134.23 51.7514C133.836 51.696 133.396 51.3826 132.959 50.7227C132.529 50.0743 132.153 49.1668 131.864 48.0954C131.285 45.9536 131.081 43.2624 131.407 40.941C131.732 38.6257 132.514 37.1784 133.436 36.3497C134.351 35.5273 135.452 35.2698 136.525 35.4206C137.599 35.5715 138.603 36.1258 139.271 37.1731C139.943 38.2265 140.311 39.8344 139.986 42.1466Z" fill="#FF0000" stroke="black"odd"/>
<path d="M228.75 34.5397C228.931 35.8255 229.388 36.9234 229.955 37.6604C230.532 38.411 231.148 38.7031 231.661 38.631C232.174 38.5589 232.685 38.1084 233.033 37.2278C233.376 36.363 233.512 35.1816 233.332 33.8959C233.151 32.6101 232.694 31.5122 232.127 30.7752C231.549 30.0247 230.934 29.7325 230.421 29.8046C229.907 29.8768 229.396 30.3272 229.048 31.2078C228.706 32.0726 228.569 33.254 228.75 34.5397Z" stroke="black"/>
<path d="M227.314 39.0532C227.64 41.3726 228.593 43.9001 229.755 45.7974C230.336 46.7464 230.955 47.5145 231.553 48.019C232.162 48.5328 232.675 48.7134 233.07 48.6579C233.464 48.6026 233.903 48.2891 234.341 47.6292C234.771 46.9808 235.147 46.0734 235.436 45.0019C236.015 42.8601 236.219 40.169 235.893 37.8476C235.567 35.5322 234.785 34.085 233.863 33.2562C232.949 32.4339 231.848 32.1763 230.775 32.3271C229.701 32.478 228.697 33.0324 228.029 34.0796C227.356 35.133 226.989 36.741 227.314 39.0532Z" fill="#FF0000" stroke="black"odd"/>
<path d="M96.3546 32.611C96.1739 33.8967 95.7169 34.9947 95.1498 35.7317C94.5723 36.4822 93.9569 36.7744 93.4437 36.7023C92.9305 36.6301 92.4195 36.1797 92.0712 35.299C91.7292 34.4342 91.5925 33.2529 91.7732 31.9671C91.9539 30.6814 92.4109 29.5835 92.978 28.8464C93.5555 28.0959 94.1709 27.8038 94.6841 27.8759C95.1973 27.948 95.7083 28.3985 96.0566 29.2791C96.3986 30.1439 96.5353 31.3252 96.3546 32.611Z" stroke="black"/>
<path d="M97.7908 37.1244C97.4649 39.4439 96.5117 41.9713 95.35 43.8686C94.7689 44.8176 94.1497 45.5858 93.5516 46.0903C92.9426 46.604 92.4295 46.7846 92.0346 46.7292C91.6407 46.6738 91.2014 46.3604 90.7638 45.7005C90.3338 45.0521 89.9579 44.1446 89.6686 43.0732C89.0902 40.9314 88.8857 38.2402 89.212 35.9188C89.5374 33.6035 90.3194 32.1562 91.2414 31.3275C92.1562 30.5051 93.2566 30.2476 94.3296 30.3983C95.4037 30.5493 96.4078 31.1036 97.0762 32.1509C97.7485 33.2042 98.1158 34.8122 97.7908 37.1244Z" fill="#FF0000" stroke="black"odd"/>
<path d="M270.945 28.0287C271.126 29.3145 271.583 30.4124 272.15 31.1494C272.727 31.8999 273.343 32.1921 273.856 32.12C274.369 32.0479 274.88 31.5974 275.228 30.7168C275.57 29.852 275.707 28.6706 275.526 27.3849C275.346 26.0991 274.889 25.0012 274.322 24.2642C273.744 23.5137 273.129 23.2215 272.616 23.2936C272.102 23.3657 271.591 23.8162 271.243 24.6968C270.901 25.5616 270.764 26.743 270.945 28.0287Z" stroke="black"/>
<path d="M269.509 32.5422C269.835 34.8616 270.788 37.3891 271.95 39.2864C272.531 40.2354 273.15 41.0035 273.748 41.508C274.357 42.0217 274.87 42.2024 275.265 42.1469C275.659 42.0915 276.098 41.7781 276.536 41.1182C276.966 40.4698 277.342 39.5624 277.631 38.4909C278.209 36.3491 278.414 33.658 278.088 31.3365C277.762 29.0212 276.98 27.574 276.058 26.7452C275.143 25.9229 274.043 25.6653 272.97 25.8161C271.896 25.967 270.892 26.5213 270.223 27.5686C269.551 28.622 269.184 30.23 269.509 32.5422Z" fill="#FF0000" stroke="black"odd"/>
<path d="M58.5448 25.9191C58.3642 27.2049 57.9071 28.3028 57.34 29.0398C56.7625 29.7904 56.1472 30.0825 55.6339 30.0104C55.1207 29.9383 54.6097 29.4878 54.2614 28.6072C53.9194 27.7424 53.7827 26.561 53.9634 25.2753C54.1441 23.9896 54.6011 22.8916 55.1683 22.1546C55.7458 21.4041 56.3611 21.1119 56.8743 21.184C57.3876 21.2562 57.8985 21.7066 58.2468 22.5872C58.5888 23.452 58.7255 24.6334 58.5448 25.9191Z" stroke="black"/>
<path d="M59.9811 30.4326C59.6551 32.752 58.702 35.2795 57.5402 37.1768C56.9591 38.1258 56.3399 38.8939 55.7418 39.3984C55.1328 39.9122 54.6197 40.0928 54.2248 40.0373C53.8309 39.982 53.3916 39.6685 52.954 39.0086C52.524 38.3603 52.1481 37.4528 51.8588 36.3813C51.2804 34.2395 51.076 31.5484 51.4022 29.227C51.7276 26.9116 52.5097 25.4644 53.4316 24.6357C54.3464 23.8133 55.4469 23.5557 56.5199 23.7065C57.594 23.8575 58.598 24.4118 59.2664 25.459C59.9387 26.5124 60.306 28.1204 59.9811 30.4326Z" fill="#FF0000" stroke="black"odd"/>
<path d="M308.348 18.9693C308.529 20.2551 308.986 21.353 309.553 22.09C310.131 22.8405 310.746 23.1327 311.259 23.0606C311.773 22.9885 312.284 22.538 312.632 21.6574C312.974 20.7926 313.111 19.6112 312.93 18.3255C312.749 17.0397 312.292 15.9418 311.725 15.2048C311.147 14.4543 310.532 14.1621 310.019 14.2342C309.506 14.3063 308.995 14.7568 308.646 15.6374C308.304 16.5022 308.168 17.6836 308.348 18.9693Z" stroke="black"/>
<path d="M306.912 23.4828C307.238 25.8022 308.191 28.3297 309.353 30.227C309.934 31.176 310.553 31.9441 311.151 32.4486C311.76 32.9623 312.274 33.143 312.668 33.0875C313.062 33.0321 313.502 32.7187 313.939 32.0588C314.369 31.4104 314.745 30.503 315.034 29.4315C315.613 27.2897 315.817 24.5986 315.491 22.2771C315.166 19.9618 314.384 18.5146 313.462 17.6858C312.547 16.8635 311.446 16.6059 310.373 16.7567C309.299 16.9076 308.295 17.4619 307.627 18.5092C306.955 19.5626 306.587 21.1706 306.912 23.4828Z" fill="#FF0000" stroke="black"odd"/>
<path d="M27.0863 16.5376C26.8486 17.814 26.3431 18.8905 25.7437 19.6015C25.1333 20.3255 24.5055 20.59 23.996 20.4951C23.4865 20.4002 22.9961 19.9274 22.6874 19.0321C22.3843 18.1529 22.3004 16.9667 22.5382 15.6902C22.776 14.4138 23.2814 13.3374 23.8808 12.6263C24.4912 11.9023 25.119 11.6378 25.6285 11.7327C26.138 11.8277 26.6284 12.3004 26.9371 13.1957C27.2402 14.0749 27.3241 15.2612 27.0863 16.5376Z" stroke="black"/>
<path d="M28.32 21.1105C27.8911 23.4131 26.8263 25.8956 25.5811 27.7393C24.9583 28.6615 24.3055 29.4012 23.6855 29.8786C23.0542 30.3647 22.5336 30.5223 22.1416 30.4492C21.7505 30.3764 21.3256 30.0437 20.9178 29.3649C20.5172 28.6981 20.1821 27.7747 19.9408 26.6915C19.4584 24.526 19.3741 21.8284 19.8034 19.5239C20.2316 17.2253 21.0774 15.8144 22.0353 15.0275C22.9859 14.2467 24.0967 14.0385 25.1619 14.2369C26.2283 14.4356 27.2066 15.0341 27.8277 16.1101C28.4524 17.1924 28.7477 18.8151 28.32 21.1105Z" fill="#FF0000" stroke="black"odd"/>
<path d="M340.213 8.8742C340.451 10.1506 340.957 11.2271 341.556 11.9381C342.166 12.6622 342.794 12.9266 343.304 12.8317C343.813 12.7368 344.303 12.264 344.612 11.3687C344.915 10.4896 344.999 9.30328 344.761 8.02686C344.524 6.75045 344.018 5.67398 343.419 4.96294C342.808 4.23891 342.181 3.97444 341.671 4.06936C341.162 4.16429 340.671 4.63706 340.363 5.53233C340.059 6.41151 339.975 7.59779 340.213 8.8742Z" stroke="black"/>
<path d="M338.98 13.4472C339.409 15.7498 340.473 18.2322 341.718 20.0759C342.341 20.9981 342.994 21.7378 343.614 22.2152C344.245 22.7013 344.766 22.8589 345.158 22.7859C345.549 22.713 345.974 22.3803 346.382 21.7016C346.782 21.0347 347.118 20.1114 347.359 19.0281C347.841 16.8627 347.926 14.1651 347.496 11.8605C347.068 9.56197 346.222 8.151 345.264 7.36416C344.314 6.58336 343.203 6.37508 342.138 6.57353C341.071 6.77219 340.093 7.37068 339.472 8.44668C338.847 9.52898 338.552 11.1517 338.98 13.4472Z" fill="#FF0000" stroke="black"odd"/>
<path d="M159.876 37.8414C159.876 39.1397 159.576 40.2906 159.117 41.0994C158.65 41.9229 158.081 42.2979 157.563 42.2979C157.044 42.2979 156.476 41.9229 156.008 41.0994C155.549 40.2906 155.249 39.1397 155.249 37.8414C155.249 36.543 155.549 35.3921 156.008 34.5834C156.476 33.7598 157.044 33.3848 157.563 33.3848C158.081 33.3848 158.65 33.7598 159.117 34.5834C159.576 35.3921 159.876 36.543 159.876 37.8414Z" stroke="black"/>
<path d="M161.926 42.111C161.926 44.4532 161.334 47.0887 160.448 49.1292C160.004 50.1499 159.498 50.9967 158.976 51.5796C158.444 52.1731 157.961 52.4233 157.563 52.4233C157.165 52.4233 156.686 52.1741 156.161 51.5815C155.645 50.9993 155.147 50.153 154.711 49.1322C153.84 47.0918 153.263 44.4552 153.263 42.111C153.263 39.7729 153.836 38.2309 154.634 37.282C155.425 36.3403 156.479 35.9321 157.563 35.9321C158.647 35.9321 159.719 36.3412 160.526 37.2853C161.339 38.2349 161.926 39.7761 161.926 42.111Z" fill="#FFE600" stroke="black" class="even"/>
<path d="M203.996 37.0566C203.996 38.355 204.296 39.5058 204.755 40.3146C205.222 41.1382 205.791 41.5132 206.309 41.5132C206.828 41.5132 207.396 41.1382 207.864 40.3146C208.323 39.5058 208.623 38.355 208.623 37.0566C208.623 35.7582 208.323 34.6074 207.864 33.7986C207.396 32.975 206.828 32.6001 206.309 32.6001C205.791 32.6001 205.222 32.975 204.755 33.7986C204.296 34.6074 203.996 35.7582 203.996 37.0566Z" stroke="black"/>
<path d="M201.946 41.3263C201.946 43.6685 202.538 46.304 203.424 48.3445C203.868 49.3652 204.374 50.212 204.896 50.7948C205.428 51.3883 205.911 51.6386 206.309 51.6386C206.707 51.6386 207.186 51.3894 207.711 50.7968C208.227 50.2145 208.726 49.3682 209.161 48.3474C210.032 46.307 210.609 43.6705 210.609 41.3263C210.609 38.9882 210.036 37.4462 209.238 36.4972C208.447 35.5555 207.393 35.1473 206.309 35.1473C205.225 35.1473 204.153 35.5565 203.346 36.5005C202.533 37.4501 201.946 38.9913 201.946 41.3263Z" fill="#FFE600" stroke="black" class="even"/>
<path d="M76.8492 29.0728C76.8802 30.3709 76.6079 31.5285 76.1683 32.348C75.7206 33.1825 75.161 33.5709 74.6429 33.5833C74.1248 33.5956 73.5473 33.2343 73.0604 32.4221C72.5822 31.6245 72.2551 30.4811 72.2241 29.1831C72.1932 27.8851 72.4654 26.7275 72.905 25.908C73.3527 25.0735 73.9123 24.6851 74.4304 24.6727C74.9486 24.6603 75.526 25.0216 76.013 25.8338C76.4912 26.6315 76.8183 27.7748 76.8492 29.0728Z" stroke="black"/>
<path d="M79.0008 33.2924C79.0566 35.6339 78.5275 38.2828 77.69 40.3439C77.2711 41.3748 76.7851 42.2335 76.2771 42.8286C75.7598 43.4346 75.2829 43.6963 74.8843 43.7058C74.4866 43.7153 74.0022 43.4775 73.463 42.8976C72.9333 42.3279 72.4147 41.4937 71.9548 40.4836C71.0356 38.4645 70.396 35.8425 70.3401 33.4989C70.2843 31.1615 70.8205 29.6063 71.5953 28.6386C72.3641 27.6783 73.4079 27.2451 74.4912 27.2192C75.5755 27.1934 76.6564 27.5769 77.4863 28.5014C78.3211 29.4314 78.9451 30.9581 79.0008 33.2924Z" fill="#FFE600" stroke="black" class="even"/>
<path d="M292.023 22.9143C291.992 24.2123 292.264 25.3699 292.704 26.1895C293.151 27.0239 293.711 27.4124 294.229 27.4247C294.747 27.4371 295.325 27.0758 295.812 26.2636C296.29 25.4659 296.617 24.3226 296.648 23.0246C296.679 21.7266 296.407 20.5689 295.967 19.7494C295.519 18.9149 294.96 18.5265 294.442 18.5141C293.924 18.5018 293.346 18.8631 292.859 19.6753C292.381 20.4729 292.054 21.6163 292.023 22.9143Z" stroke="black"/>
<path d="M289.871 27.1338C289.815 29.4754 290.345 32.1243 291.182 34.1853C291.601 35.2163 292.087 36.0749 292.595 36.67C293.112 37.276 293.589 37.5378 293.988 37.5473C294.385 37.5567 294.87 37.319 295.409 36.7391C295.939 36.1693 296.457 35.3351 296.917 34.325C297.836 32.3059 298.476 29.6839 298.532 27.3403C298.588 25.0029 298.052 23.4477 297.277 22.48C296.508 21.5197 295.464 21.0865 294.381 21.0607C293.297 21.0348 292.216 21.4183 291.386 22.3429C290.551 23.2728 289.927 24.7996 289.871 27.1338Z" fill="#FFE600" stroke="black" class="even"/>
<path d="M43.12 21.3232C42.8827 22.5997 42.3776 23.6763 41.7785 24.3876C41.1684 25.1119 40.5407 25.3766 40.0312 25.2819C39.5217 25.1871 39.0311 24.7145 38.722 23.8194C38.4185 22.9403 38.3342 21.7541 38.5715 20.4776C38.8088 19.2011 39.3139 18.1244 39.913 17.4131C40.5231 16.6889 41.1508 16.4242 41.6603 16.5189C42.1698 16.6136 42.6604 17.0862 42.9695 17.9814C43.2729 18.8604 43.3573 20.0467 43.12 21.3232Z" stroke="black"/>
<path d="M44.3554 25.8957C43.9273 28.1984 42.8635 30.6813 41.6191 32.5254C40.9966 33.4479 40.3441 34.1879 39.7243 34.6655C39.0932 35.1518 38.5726 35.3096 38.1805 35.2367C37.7895 35.164 37.3644 34.8315 36.9564 34.1529C36.5555 33.4862 36.22 32.563 35.9783 31.4798C35.4951 29.3146 35.4097 26.617 35.8382 24.3122C36.2655 22.0136 37.1108 20.6023 38.0684 19.8151C39.0187 19.0339 40.1294 18.8252 41.1947 19.0232C42.2611 19.2215 43.2397 19.8196 43.8612 20.8954C44.4863 21.9774 44.7822 23.6001 44.3554 25.8957Z" fill="#FFE600" stroke="black" class="even"/>
<path d="M324.18 14.2997C324.417 15.5762 324.922 16.6529 325.521 17.3642C326.131 18.0884 326.759 18.3531 327.268 18.2584C327.778 18.1637 328.269 17.6911 328.578 16.7959C328.881 15.9169 328.965 14.7306 328.728 13.4541C328.491 12.1776 327.986 11.101 327.387 10.3897C326.777 9.66543 326.149 9.40072 325.639 9.49545C325.13 9.59018 324.639 10.0628 324.33 10.9579C324.027 11.837 323.942 13.0232 324.18 14.2997Z" stroke="black"/>
<path d="M322.944 18.8722C323.372 21.175 324.436 23.6579 325.681 25.502C326.303 26.4244 326.956 27.1644 327.575 27.642C328.206 28.1284 328.727 28.2862 329.119 28.2133C329.51 28.1406 329.935 27.8081 330.343 27.1295C330.744 26.4627 331.08 25.5395 331.321 24.4563C331.805 22.2911 331.89 19.5936 331.461 17.2888C331.034 14.9901 330.189 13.5788 329.231 12.7916C328.281 12.0105 327.17 11.8018 326.105 11.9998C325.039 12.1981 324.06 12.7962 323.438 13.8719C322.813 14.954 322.517 16.5766 322.944 18.8722Z" fill="#FFE600" stroke="black" class="even"/>
<path d="M11.0492 10.9526C10.8119 12.2291 10.3069 13.3058 9.70773 14.0171C9.09762 14.7413 8.46998 15.006 7.96044 14.9113C7.4509 14.8166 6.96032 14.344 6.65128 13.4489C6.34779 12.5698 6.26342 11.3835 6.50073 10.107C6.73804 8.83053 7.2431 7.75387 7.84224 7.04261C8.45234 6.31834 9.07999 6.05363 9.58953 6.14836C10.0991 6.24309 10.5896 6.71568 10.8987 7.61082C11.2022 8.48989 11.2866 9.67613 11.0492 10.9526Z" stroke="black"/>
<path d="M12.2847 15.5251C11.8566 17.8279 10.7927 20.3108 9.5483 22.1549C8.92585 23.0773 8.2733 23.8174 7.65352 24.2949C7.0224 24.7813 6.50179 24.9391 6.10975 24.8662C5.71871 24.7935 5.29366 24.461 4.88562 23.7824C4.48472 23.1156 4.14926 22.1925 3.90753 21.1093C3.42434 18.944 3.33896 16.2465 3.76743 13.9417C4.19477 11.643 5.04004 10.2317 5.99765 9.44454C6.94792 8.66337 8.05867 8.45467 9.12395 8.65271C10.1904 8.85097 11.1689 9.44908 11.7904 10.5248C12.4155 11.6069 12.7114 13.2295 12.2847 15.5251Z" fill="#FFE600" stroke="black" class="even"/>
<path d="M116.339 34.7086C116.444 36.0027 116.239 37.174 115.847 38.0175C115.448 38.8763 114.912 39.2962 114.395 39.3383C113.879 39.3804 113.281 39.0529 112.748 38.27C112.225 37.5012 111.833 36.3785 111.727 35.0844C111.622 33.7903 111.827 32.6189 112.219 31.7755C112.618 30.9167 113.154 30.4968 113.671 30.4547C114.188 30.4126 114.785 30.7401 115.318 31.523C115.841 32.2918 116.233 33.4145 116.339 34.7086Z" stroke="black"/>
<path d="M118.729 38.7975C118.919 41.132 118.543 43.8069 117.826 45.9127C117.467 46.966 117.031 47.8511 116.558 48.4745C116.076 49.1092 115.615 49.3979 115.218 49.4303C114.821 49.4626 114.324 49.2531 113.752 48.7051C113.191 48.1667 112.625 47.3637 112.108 46.3817C111.074 44.4187 110.285 41.8378 110.095 39.5013C109.905 37.171 110.35 35.5875 111.068 34.5769C111.781 33.574 112.798 33.0815 113.878 32.9935C114.959 32.9054 116.06 33.2262 116.942 34.1015C117.829 34.9819 118.539 36.4703 118.729 38.7975Z" fill="#FFE600" stroke="black" class="even"/>
<path d="M250.961 31.2501C250.856 32.5442 251.061 33.7155 251.453 34.559C251.852 35.4178 252.388 35.8377 252.905 35.8798C253.421 35.9219 254.018 35.5944 254.551 34.8115C255.074 34.0427 255.467 32.92 255.572 31.6259C255.678 30.3318 255.472 29.1604 255.081 28.317C254.682 27.4582 254.145 27.0383 253.629 26.9962C253.112 26.9541 252.515 27.2816 251.982 28.0645C251.459 28.8333 251.067 29.956 250.961 31.2501Z" stroke="black"/>
<path d="M248.571 35.339C248.38 37.6735 248.756 40.3484 249.474 42.4542C249.833 43.5075 250.269 44.3926 250.742 45.016C251.224 45.6507 251.685 45.9394 252.082 45.9718C252.478 46.0041 252.976 45.7946 253.547 45.2466C254.109 44.7082 254.675 43.9052 255.192 42.9232C256.225 40.9602 257.015 38.3793 257.205 36.0428C257.395 33.7125 256.949 32.129 256.231 31.1184C255.519 30.1155 254.502 29.623 253.422 29.535C252.341 29.4469 251.24 29.7677 250.358 30.643C249.471 31.5234 248.76 33.0118 248.571 35.339Z" fill="#FFE600" stroke="black" class="even"/>
</svg>
